<svg xmlns="http://www.w3.org/2000/svg" height="1200" width="1600" version="1.1" xmlns:xlink="http://www.w3.org/1999/xlink" xmlns:svgjs="http://svgjs.com/svgjs"><rect fill="#ffffff" width="1600" height="1200"></rect><g><path d="M975.8 1011.3V653.4C975.8 631.1 993.9 612.9 1016.3 612.9H1285.8C1308.1 612.9 1326.3 631 1326.3 653.4V1011.3C1326.3 1033.6 1308.2 1051.8 1285.8 1051.8H1016.3C993.9 1051.7 975.8 1033.6 975.8 1011.3Z" fill="#382eff" opacity="1" stroke-width="4" stroke="none"></path></g><g><path d="M1225.3 452.7V610.9" stroke="#2c435b" stroke-width="4" stroke-linecap="round" stroke-linejoin="round" opacity="1" fill="none"></path><path d="M1225.8 593.4C1232.48 593.4 1237.9 587.98 1237.9 581.3 1237.9 574.62 1232.48 569.2 1225.8 569.2 1219.12 569.2 1213.7 574.62 1213.7 581.3 1213.7 587.98 1219.12 593.4 1225.8 593.4Z" fill="#382eff" opacity="1" stroke-width="4" stroke="none"></path></g><g><path d="M708.9 872.9H1002" stroke="#2c435b" stroke-width="4" stroke-linecap="round" stroke-linejoin="round" opacity="1" fill="none"></path><path d="M977.3 909.8C997.96 909.8 1014.7 893.05 1014.7 872.4 1014.7 851.75 997.96 835 977.3 835 956.65 835 939.9 851.75 939.9 872.4 939.9 893.05 956.65 909.8 977.3 909.8Z" fill="#2c435b" opacity="1" stroke-width="4" stroke="none"></path></g><g><path d="M792.1 872.9V951.1C792.1 966.8 804.8 979.5 820.5 979.5H975" stroke="#2c435b" stroke-width="4" stroke-linecap="round" stroke-linejoin="round" opacity="1" fill="none"></path><path d="M792.6 884.5C799.28 884.5 804.7 879.08 804.7 872.4 804.7 865.72 799.28 860.3 792.6 860.3 785.92 860.3 780.5 865.72 780.5 872.4 780.5 879.08 785.92 884.5 792.6 884.5Z" fill="#382eff" opacity="1" stroke-width="4" stroke="none"></path></g><g><path d="M1185 434.2V533.7C1185 549.4 1172.3 562.1 1156.6 562.1H1002" stroke="#2c435b" stroke-width="4" stroke-linecap="round" stroke-linejoin="round" opacity="1" fill="none"></path></g><g><path d="M619.1 877.8V977.3C619.1 993 606.4 1005.7 590.7 1005.7H436.1" stroke="#2c435b" stroke-width="4" stroke-linecap="round" stroke-linejoin="round" opacity="1" fill="none"></path></g><g><path d="M355.5 632.2V731.7C355.5 747.4 368.2 760.1 383.9 760.1H538.4" stroke="#2c435b" stroke-width="4" stroke-linecap="round" stroke-linejoin="round" opacity="1" fill="none"></path></g><g><path d="M452.4 632.2H666.1C688.4 632.2 706.6 650.3 706.6 672.7V886.4C706.6 908.7 688.5 926.9 666.1 926.9H452.4C430.1 926.9 411.9 908.8 411.9 886.4V672.6C411.9 650.3 430 632.2 452.4 632.2Z" fill="#382eff" opacity="1" stroke-width="4" stroke="none"></path></g><g><path d="M1250.38 812.77H1183.4C1176.81 812.77 1171.54 807.5 1171.54 800.9 1171.54 799.59 1171.8 798 1172.33 796.68L1204.5 709.66C1206.87 703.6 1203.71 696.74 1197.38 694.37 1192.9 692.79 1188.15 693.84 1184.72 697L1043.38 838.35C1038.63 843.1 1038.63 850.48 1043.38 855.23 1045.49 857.34 1048.65 858.65 1051.82 858.65H1118.8C1125.39 858.65 1130.66 863.93 1130.66 870.52 1130.66 871.84 1130.4 873.42 1129.87 874.74L1097.7 961.76C1095.33 967.83 1098.49 974.68 1104.82 977.06 1109.3 978.64 1114.05 977.59 1117.48 974.42L1258.82 833.08C1263.57 828.33 1263.57 820.95 1258.82 816.2 1256.45 814.09 1253.55 812.77 1250.38 812.77Z" fill="#ffffff" opacity="1" stroke-width="4" stroke="none"></path></g><g><path d="M605.52 828.97L624.63 719.02 514.68 738.14 540.22 763.68 493.88 809.86 533.8 849.78 579.97 803.6 605.52 828.97Z" fill="#ffffff" opacity="1" stroke-width="4" stroke="none"></path></g><g><path d="M1293.7 685.2H1401.5C1423.8 685.2 1423.1 703.6 1423.1 726L1442 810.6V833.5C1442 855.8 1423.9 874 1401.5 874H1293.7C1271.4 874 1253.2 855.9 1253.2 833.5V810.6L1263.6 723.1C1263.7 700.8 1271.4 685.2 1293.7 685.2Z" fill="#2c435b" opacity="1" stroke-width="4" stroke="none"></path><path d="M1293.7 662.3H1401.5C1423.8 662.3 1442 680.4 1442 702.8V810.6C1442 832.9 1423.9 851.1 1401.5 851.1H1293.7C1271.4 851.1 1253.2 833 1253.2 810.6V702.7C1253.3 680.4 1271.4 662.3 1293.7 662.3Z" fill="#a0d8ff" opacity="1" stroke-width="4" stroke="none"></path></g><g><path d="M581.7 498.2H696.3" stroke="#2c435b" stroke-width="4" stroke-linecap="round" stroke-linejoin="round" opacity="1" fill="none"></path></g><g><path d="M1347.65 810.3C1377.36 810.3 1401.45 786.22 1401.45 756.5 1401.45 726.79 1377.36 702.7 1347.65 702.7 1317.94 702.7 1293.85 726.79 1293.85 756.5 1293.85 786.22 1317.94 810.3 1347.65 810.3Z" fill="#ffffff" opacity="1" stroke-width="4" stroke="none"></path><path d="M1345.68 756.5V785.84L1367.71 770.97 1327.59 743.92" stroke="#2c435b" stroke-width="4" stroke-linecap="round" stroke-linejoin="round" opacity="1" fill="none"></path><path d="M1345.68 756.5V727.16L1367.71 742.11 1327.59 769.09" stroke="#2c435b" stroke-width="4" stroke-linecap="round" stroke-linejoin="round" opacity="1" fill="none"></path></g><g><path d="M706.68 226.48L764.98 226.48C771.08 226.48 775.99 231.39 775.99 237.49L775.99 410.33C775.99 416.43 771.08 421.34 764.98 421.34L673.23 421.34" stroke="#2c435b" stroke-width="4" stroke-linecap="round" stroke-linejoin="round" opacity="1" fill="none"></path><path d="M698.53 226.26C698.53 235.32 705.87 242.66 714.92 242.66 723.98 242.66 731.32 235.32 731.32 226.26 731.32 217.21 723.98 209.87 714.92 209.87 705.87 209.87 698.53 217.21 698.53 226.26Z" fill="#2c435b" opacity="1" stroke-width="4" stroke="none"></path><path d="M770.46 373.07C770.46 376 772.84 378.38 775.77 378.38 778.7 378.38 781.07 376 781.07 373.07 781.07 370.14 778.7 367.77 775.77 367.77 772.84 367.77 770.46 370.14 770.46 373.07Z" fill="#2c435b" opacity="1" stroke-width="4" stroke="none"></path></g><g><path d="M291.8 927.9H244.6C232.8 927.9 223.2 918.3 223.2 906.5V827.8L239.6 817.6 206.8 797.2 239.6 776.8 206.8 756.4 223.2 746.2V671" stroke="#2c435b" stroke-width="4" stroke-linecap="round" stroke-linejoin="round" opacity="1" fill="none"></path><path d="M270.9 939.9C277.58 939.9 283 934.48 283 927.8 283 921.12 277.58 915.7 270.9 915.7 264.22 915.7 258.8 921.12 258.8 927.8 258.8 934.48 264.22 939.9 270.9 939.9Z" fill="#2c435b" opacity="1" stroke-width="4" stroke="none"></path></g><g><path d="M707 424.4H1005.6C1027.9 424.4 1016.1 443.7 1016.1 466.1L1046.1 739.2V763.5C1046.1 785.8 1028 804 1005.6 804H707C684.7 804 666.5 785.9 666.5 763.5V743.1L683.8 465.4C683.8 443 684.6 424.4 707 424.4Z" fill="#2c435b" opacity="1" stroke-width="4" stroke="none"></path><path d="M707 400.1H1005.6C1027.9 400.1 1046.1 418.2 1046.1 440.6V739.2C1046.1 761.5 1028 779.7 1005.6 779.7H707C684.7 779.7 666.5 761.6 666.5 739.2V440.5C666.5 418.2 684.6 400.1 707 400.1Z" fill="#ffffff" opacity="1" stroke-width="4" stroke="none"></path></g><g><path d="M292.97 666.13C276.14 590.65 290.83 499.83 321.55 496.18 350.7 492.67 360.37 565.8 351.56 584.85 344.9 599.24 332.15 584.56 344.97 554.05 356.72 526.19 391.09 469.11 423.32 470.54 455.55 471.97 427.69 529.91 427.69 529.91L554.46 483" stroke="#2c435b" stroke-width="4" stroke-linecap="round" stroke-linejoin="round" opacity="1" fill="none"></path></g><g><path d="M1112.7 294H990.3L976.3 271.6 948.5 316.5 920.6 271.6 892.7 316.5 878.7 294H775.8" stroke="#2c435b" stroke-width="4" stroke-linecap="round" stroke-linejoin="round" opacity="1" fill="none"></path></g><g><path d="M1190.11 479.43C1211.84 479.43 1229.47 461.8 1229.47 440.08 1229.47 418.35 1211.84 400.72 1190.11 400.72 1168.39 400.72 1150.76 418.35 1150.76 440.08 1150.76 461.8 1168.39 479.43 1190.11 479.43Z" fill="#3292ff" opacity="1" stroke-width="4" stroke="none"></path></g><g><path d="M206.7 357.5H564.6C586.9 357.5 539.6 378.7 539.6 401.1L605.1 643.2V667.5C605.1 689.8 587 708 564.6 708H206.7C184.4 708 166.2 689.9 166.2 667.5V647.6L199.7 401.1C199.7 378.8 184.4 357.5 206.7 357.5Z" fill="#2c435b" opacity="1" stroke-width="4" stroke="none"></path><path d="M206.7 333.2H564.6C586.9 333.2 605.1 351.3 605.1 373.7V643.2C605.1 665.5 587 683.7 564.6 683.7H206.7C184.4 683.7 166.2 665.6 166.2 643.2V373.7C166.2 351.3 184.4 333.2 206.7 333.2Z" fill="#3292ff" opacity="1" stroke-width="4" stroke="none"></path></g><g><path d="M1139.6 218.7H1371.3C1393.6 218.7 1382.1 235.8 1382.1 258.2L1411.8 466.6V490.9C1411.8 513.2 1393.7 531.4 1371.3 531.4H1139.6C1117.3 531.4 1099.1 513.3 1099.1 490.9V466.6L1142.5 271.7C1142.5 249.3 1117.2 218.7 1139.6 218.7Z" fill="#2c435b" opacity="1" stroke-width="4" stroke="none"></path><path d="M1139.1 194.4H1370.8C1393.1 194.4 1411.3 212.5 1411.3 234.9V466.6C1411.3 488.9 1393.2 507.1 1370.8 507.1H1139.1C1116.8 507.1 1098.6 489 1098.6 466.6V234.8C1098.7 212.5 1116.8 194.4 1139.1 194.4Z" fill="#3292ff" opacity="1" stroke-width="4" stroke="none"></path></g><g><path d="M494.03 424.3C427.19 424.3 449.21 505.3 384.72 505.3 350.91 505.3 363.49 564.28 334.39 564.28 300.58 564.28 314.73 478.56 275.41 478.56" stroke="#ffffff" stroke-width="4" opacity="1" fill="none"></path><path d="M494.03 429.8V633.48" stroke="#ffffff" stroke-width="4" opacity="1" fill="none"></path><path d="M384.57 508.44V633.48" stroke="#ffffff" stroke-width="4" opacity="1" fill="none"></path><path d="M275.02 486.42V633.48" stroke="#ffffff" stroke-width="4" opacity="1" fill="none"></path><path d="M266.76 632.7H501.9" stroke="#ffffff" stroke-width="4" stroke-linecap="round" stroke-linejoin="round" opacity="1" fill="none"></path><path d="M275.02 491.93C282.41 491.93 288.39 485.94 288.39 478.56 288.39 471.18 282.41 465.19 275.02 465.19 267.64 465.19 261.65 471.18 261.65 478.56 261.65 485.94 267.64 491.93 275.02 491.93Z" fill="#ffffff" opacity="1" stroke-width="4" stroke="none"></path><path d="M384.72 518.67C392.11 518.67 398.09 512.68 398.09 505.3 398.09 497.91 392.11 491.93 384.72 491.93 377.34 491.93 371.36 497.91 371.36 505.3 371.36 512.68 377.34 518.67 384.72 518.67Z" fill="#ffffff" opacity="1" stroke-width="4" stroke="none"></path><path d="M494.03 437.67C501.42 437.67 507.4 431.68 507.4 424.3 507.4 416.91 501.42 410.93 494.03 410.93 486.65 410.93 480.67 416.91 480.67 424.3 480.67 431.68 486.65 437.67 494.03 437.67Z" fill="#ffffff" opacity="1" stroke-width="4" stroke="none"></path></g><g><path d="M1317.58 379.41C1309.86 360.3 1290.85 348.2 1270.31 349.25 1269.35 349.29 1268.54 348.53 1268.5 347.58 1268.45 347.05 1268.69 346.53 1269.07 346.2 1284.56 332.62 1289.7 310.69 1281.93 291.59L1266.35 253.27 1176.62 289.68 1192.2 328.04C1199.97 347.1 1218.94 359.21 1239.48 358.21 1240.43 358.16 1241.24 358.92 1241.33 359.87 1241.38 360.4 1241.14 360.92 1240.76 361.26 1225.27 374.84 1220.13 396.76 1227.85 415.82L1243.43 454.18 1333.16 417.77 1317.58 379.41Z" fill="#ffffff" opacity="1" stroke-width="4" stroke="none"></path><path d="M1311.62 399.62L1316.44 411.43 1250.96 438.03 1239.57 410.05C1238.24 406.72 1237.38 403.19 1237.09 399.62L1311.62 399.62Z" fill="#b1a9ac" stroke-linecap="round" stroke-linejoin="round" opacity="1" stroke-width="4" stroke="none"></path><path d="M1270.31 399.62L1296.56 406.57 1301.09 417.68 1316.44 411.43 1311.62 399.62H1270.31Z" fill="#151515" opacity="0.2" stroke-width="4" stroke="none"></path><path d="M1250.72 343.48C1232.61 350.82 1212.03 342.1 1204.69 324.04L1198.44 305.67H1272.45C1274.74 321.7 1265.78 337.33 1250.72 343.48Z" fill="#b1a9ac" stroke-linecap="round" stroke-linejoin="round" opacity="1" stroke-width="4" stroke="none"></path><path d="M1272.45 305.69H1256.68C1258.97 321.7 1250.01 337.33 1234.95 343.48 1233.18 344.2 1231.37 344.77 1229.56 345.2 1236.38 346.77 1243.72 346.34 1250.72 343.48 1265.78 337.33 1274.74 321.7 1272.45 305.69Z" fill="#151515" opacity="0.2" stroke-width="4" stroke="none"></path><path d="M1235.04 457.58L1341.31 414.45" stroke="#616161" stroke-width="4" stroke-linecap="round" stroke-linejoin="round" opacity="1" fill="none"></path><path d="M1168.61 292.82L1274.83 249.7" stroke="#616161" stroke-width="4" stroke-linecap="round" stroke-linejoin="round" opacity="1" fill="none"></path><path d="M1234.79 321.2C1257.52 321.2 1270.45 312.39 1270.31 305.69H1200.18C1202.72 316.67 1213.58 321.2 1234.79 321.2Z" fill="#ffffff" stroke-linecap="round" opacity="1" stroke-width="4" stroke="none"></path><path d="M1274.74 415.25C1296.37 415.25 1311.62 399.62 1310.77 399.64H1239.02C1237.14 399.9 1252.63 415.25 1274.74 415.25Z" fill="#ffffff" stroke-linecap="round" stroke-linejoin="round" opacity="1" stroke-width="4" stroke="none"></path></g><g><path d="M315.25 295.32V194.08C315.25 183.5 323.78 174.98 334.36 174.98H634.5C645.08 174.98 653.6 183.5 653.6 194.08V353.4" stroke="#2c435b" stroke-width="4" stroke-linecap="round" stroke-linejoin="round" opacity="1" fill="none"></path><path d="M314.87 309.48C330.6 309.48 343.34 296.74 343.34 281.01 343.34 265.29 330.6 252.54 314.87 252.54 299.15 252.54 286.4 265.29 286.4 281.01 286.4 296.74 299.15 309.48 314.87 309.48Z" fill="#2c435b" opacity="1" stroke-width="4" stroke="none"></path><path d="M569.8 184.57C574.88 184.57 579.01 180.44 579.01 175.36 579.01 170.27 574.88 166.15 569.8 166.15 564.71 166.15 560.59 170.27 560.59 175.36 560.59 180.44 564.71 184.57 569.8 184.57Z" fill="#2c435b" opacity="1" stroke-width="4" stroke="none"></path></g><g><path d="M771.06 719.41H931.23C942.69 719.41 952.02 710.08 952.02 698.62V487.26C952.02 475.79 942.69 466.47 931.23 466.47H839.99C838.61 466.47 837.39 467.24 836.93 468.46L810.49 531.42 753.03 552.82C751.35 553.43 750.28 555.11 750.28 556.95V698.77C750.28 710.24 759.6 719.41 771.06 719.41Z" fill="#b1a9ac" opacity="1" stroke-width="4" stroke="none"></path><path d="M751.96 553.43C751.65 553.74 751.96 554.5 752.57 554.5L817.37 554.04C828.83 554.04 838.16 544.72 838.16 533.26L837.55 467.54 751.96 553.43Z" fill="#382eff" opacity="1" stroke-width="4" stroke="none"></path></g><g><path d="M453.3 137.9H625.8C648.1 137.9 622 162.9 622 185.3L666 325.4C666 347.7 657.5 391.3 635.1 391.3H436.4C414.1 391.3 412.8 353.1 412.8 330.7L438.7 183.1C438.7 161 430.9 137.9 453.3 137.9Z" fill="#2c435b" opacity="1" stroke-width="4" stroke="none"></path><path d="M453.3 113.6H625.8C648.1 113.6 666.3 131.7 666.3 154.1V326.6C666.3 348.9 648.2 367.1 625.8 367.1H453.3C431 367.1 412.8 349 412.8 326.6V154.1C412.8 131.7 430.9 113.6 453.3 113.6Z" fill="#a0d8ff" opacity="1" stroke-width="4" stroke="none"></path></g><g><path d="M613 275.7L552.5 309.9C544.4 314.5 534.6 314.5 526.5 309.9L466 275.7C461.1 272.9 459.4 266.7 462.1 261.8 463 260.2 464.3 258.9 466 257.9L526.5 223.7C534.6 219.1 544.4 219.1 552.5 223.7L613 258C617.9 260.8 619.6 267 616.9 271.9 616 273.5 614.6 274.8 613 275.7Z" fill="#b1a9ac" opacity="1" stroke-width="4" stroke="none"></path><path d="M613 242.7L552.5 276.9C544.4 281.5 534.6 281.5 526.5 276.9L466 242.7C461.1 239.9 459.4 233.7 462.1 228.8 463 227.2 464.3 225.9 466 224.9L526.5 190.7C534.6 186.1 544.4 186.1 552.5 190.7L613 225C617.9 227.8 619.6 234 616.9 238.9 616 240.5 614.6 241.8 613 242.7Z" fill="#ffffff" opacity="1" stroke-width="4" stroke="none"></path></g><g><path d="M334.8 835.4H507.3C529.6 835.4 533.2 848.7 533.2 871.1L547.8 1024.2V1048.4C547.8 1070.7 529.7 1088.9 507.3 1088.9H334.8C312.5 1088.9 294.3 1070.8 294.3 1048.4V1024.2L319.1 876.6C319.1 854.2 312.4 835.4 334.8 835.4Z" fill="#2c435b" opacity="1" stroke-width="4" stroke="none"></path><path d="M334.8 811.2H507.3C529.6 811.2 547.8 829.3 547.8 851.7V1024.2C547.8 1046.5 529.7 1064.7 507.3 1064.7H334.8C312.5 1064.7 294.3 1046.6 294.3 1024.2V851.6C294.3 829.3 312.4 811.2 334.8 811.2Z" fill="#a0d8ff" opacity="1" stroke-width="4" stroke="none"></path></g><g><path d="M420.68 885.66V857.33" stroke="#f6f6f6" stroke-width="4" stroke-linecap="round" stroke-linejoin="round" opacity="1" fill="none"></path><path d="M420.68 1021.91V993.43" stroke="#f6f6f6" stroke-width="4" stroke-linecap="round" stroke-linejoin="round" opacity="1" fill="none"></path><path d="M474.64 939.62H503.12" stroke="#f6f6f6" stroke-width="4" stroke-linecap="round" stroke-linejoin="round" opacity="1" fill="none"></path><path d="M338.53 939.62H366.87" stroke="#f6f6f6" stroke-width="4" stroke-linecap="round" stroke-linejoin="round" opacity="1" fill="none"></path><path d="M382.61 901.55L362.58 881.37" stroke="#f6f6f6" stroke-width="4" stroke-linecap="round" stroke-linejoin="round" opacity="1" fill="none"></path><path d="M478.93 997.87L458.89 977.69" stroke="#f6f6f6" stroke-width="4" stroke-linecap="round" stroke-linejoin="round" opacity="1" fill="none"></path><path d="M458.89 901.55L478.93 881.37" stroke="#f6f6f6" stroke-width="4" stroke-linecap="round" stroke-linejoin="round" opacity="1" fill="none"></path><path d="M362.58 997.87L382.61 977.69" stroke="#f6f6f6" stroke-width="4" stroke-linecap="round" stroke-linejoin="round" opacity="1" fill="none"></path><path d="M436.57 939.62L422.97 902.84C422.68 902.26 422.11 901.84 421.4 901.84 401.07 902.41 382.9 919.01 382.9 939.62 382.9 960.08 401.07 976.83 421.54 977.4 422.26 977.4 422.83 976.97 423.11 976.4L436.57 940.76C436.71 940.48 436.71 939.9 436.57 939.62Z" fill="#ffffff" opacity="1" stroke-width="4" stroke="none"></path><path d="M458.46 939.62C458.46 919.01 442.15 902.41 421.68 901.84 421.11 901.84 420.68 902.26 420.68 902.84V976.4C420.68 976.97 421.11 977.4 421.68 977.4 442.15 976.83 458.46 960.23 458.46 939.62Z" fill="#b1a9ac" opacity="1" stroke-width="4" stroke="none"></path></g></svg>