<svg xmlns="http://www.w3.org/2000/svg" width="1839" height="868" viewBox="0 0 1839 868" version="1.1"><path d="M 659.982 333.387 C 654.028 337.468, 651.911 340.720, 650.875 347.375 C 650.299 351.075, 650.032 387.405, 650.207 438.109 L 650.500 522.673 653.447 527.086 C 657.073 532.515, 661.070 537, 662.283 537 C 662.782 537, 664.386 537.844, 665.846 538.876 C 667.306 539.907, 670.075 541.082, 672 541.487 C 673.925 541.892, 676.182 542.821, 677.015 543.553 C 677.848 544.285, 680.468 545.320, 682.836 545.852 C 685.205 546.384, 687.898 547.486, 688.822 548.301 C 689.745 549.116, 692.387 550.091, 694.692 550.469 C 696.998 550.847, 699.395 551.771, 700.019 552.523 C 700.643 553.275, 703.560 554.390, 706.500 555 C 709.440 555.610, 712.347 556.713, 712.959 557.450 C 713.571 558.188, 715.743 559.101, 717.786 559.479 C 719.829 559.858, 722.850 560.971, 724.500 561.953 C 726.150 562.934, 729.045 564.027, 730.934 564.381 C 732.823 564.734, 735.093 565.679, 735.977 566.480 C 738.214 568.504, 750.641 570.480, 755.451 569.576 C 758.062 569.086, 760.689 567.546, 763.201 565.035 L 767 561.235 767 540.253 L 767 519.271 749.250 513.574 C 698.418 497.258, 697.667 496.958, 692.630 490.972 C 687.020 484.305, 687 484.006, 687 405.900 C 687 366.445, 686.727 333.452, 686.393 332.582 C 685.890 331.270, 683.880 331, 674.625 331 C 664.500 331, 663.141 331.222, 659.982 333.387" stroke="none" fill="#ffb401" fill-rule="evenodd"/><path d="M 703.260 227.850 C 700.755 228.577, 692 235.872, 692 237.232 C 692 237.713, 690.875 239.762, 689.500 241.785 C 688.125 243.809, 687 246.409, 687 247.564 C 687 248.718, 686.075 252.609, 684.945 256.210 C 683.082 262.145, 682.918 264.836, 683.195 284.969 C 683.584 313.263, 681.631 311, 705.653 311 C 721.859 311, 723.239 310.856, 725.292 308.944 C 727.462 306.923, 727.505 306.364, 727.820 276.194 C 727.996 259.312, 727.851 241.882, 727.498 237.461 L 726.856 229.421 721.648 228.211 C 716.159 226.934, 707.030 226.755, 703.260 227.850 M 705.400 330.747 L 689.299 331.048 688.150 333.571 C 687.318 335.396, 687 355.676, 687 406.866 C 687 487.357, 686.815 485.237, 694.480 492.616 C 697.248 495.281, 701.177 497.635, 705.627 499.294 C 711.884 501.627, 762.495 518, 763.451 518 C 763.674 518, 764.564 517.293, 765.429 516.429 C 766.761 515.096, 766.998 511.565, 766.986 493.179 C 766.979 481.255, 766.726 470.582, 766.425 469.461 C 765.971 467.770, 764.492 467.204, 757.756 466.144 C 740.491 463.428, 732.882 459.221, 727.652 449.500 C 725.526 445.549, 725.502 444.893, 725.640 396 C 725.805 337.794, 725.599 332.969, 722.921 332.269 C 721.877 331.996, 721.269 331.374, 721.570 330.886 C 721.872 330.399, 721.979 330.101, 721.809 330.223 C 721.639 330.346, 714.255 330.582, 705.400 330.747 M 796.561 477.932 C 795.232 479.401, 795 483.459, 795 505.273 C 795 530.404, 795.043 530.937, 797.250 533.477 C 798.849 535.317, 800.998 536.299, 804.681 536.872 C 807.530 537.316, 810.905 538.356, 812.181 539.182 C 813.456 540.008, 816.696 540.980, 819.380 541.341 C 822.064 541.702, 825.717 542.898, 827.498 543.999 C 829.279 545.099, 832.258 546.002, 834.118 546.004 C 835.978 546.006, 838.887 546.854, 840.583 547.888 C 842.279 548.922, 845.654 550.083, 848.083 550.469 C 850.512 550.855, 854.201 552.032, 856.281 553.085 C 858.360 554.138, 861.303 555, 862.819 555 C 864.336 555, 867.274 555.865, 869.347 556.922 C 871.420 557.979, 875.001 559.162, 877.303 559.551 C 879.606 559.940, 883.060 561.100, 884.980 562.129 C 886.900 563.158, 889.834 564, 891.500 564 C 893.166 564, 896.098 564.832, 898.015 565.848 C 899.932 566.864, 903.525 568.012, 906 568.399 C 908.475 568.785, 911.539 569.781, 912.810 570.613 C 914.080 571.444, 917.630 572.533, 920.698 573.032 C 923.766 573.532, 927.115 574.699, 928.139 575.626 C 929.622 576.967, 932.093 577.322, 940.251 577.363 C 950.208 577.414, 950.633 577.323, 955.182 574.183 C 962.755 568.954, 967.739 562.018, 970.401 553 C 972.427 546.139, 973.712 521, 972.038 521 C 971.570 521, 971.409 519.987, 971.680 518.750 C 972.077 516.942, 971.963 516.795, 971.102 518 C 970.400 518.983, 970.025 519.077, 970.015 518.273 C 969.988 516.102, 965.281 513.864, 956.787 511.983 C 936.732 507.542, 914.543 502.378, 873 492.480 C 804.349 476.125, 799.100 475.126, 796.561 477.932" stroke="none" fill="#018e2b" fill-rule="evenodd"/><path d="M 900.500 215.006 C 874.924 217.502, 865.841 218.144, 844 219.004 C 830.525 219.534, 816.575 220.413, 813 220.956 C 809.425 221.500, 793.184 222.405, 776.910 222.968 C 760.635 223.531, 744.936 224.443, 742.023 224.996 C 739.110 225.548, 735.015 226, 732.923 226 C 730.830 226, 728.793 226.527, 728.395 227.170 C 727.997 227.814, 727.780 246.554, 727.912 268.814 C 728.096 299.782, 727.866 309.465, 726.933 310.041 C 726.263 310.456, 735.566 310.870, 747.607 310.962 C 759.648 311.054, 771.300 311.477, 773.500 311.901 C 780.659 313.283, 786.810 318.605, 792.311 328.178 L 795 332.856 795 404.428 L 795 476 797.869 476 C 802.739 476, 817.757 478.875, 834.500 483.011 C 843.300 485.185, 855.225 488.063, 861 489.406 C 866.775 490.749, 879.150 493.643, 888.500 495.837 C 917.838 502.720, 944.123 508.780, 954.500 511.055 C 960 512.260, 965.737 513.877, 967.250 514.649 C 968.763 515.420, 970.007 515.702, 970.015 515.276 C 970.024 514.849, 970.435 515.139, 970.929 515.919 C 972.846 518.948, 973.130 506.884, 972.530 448 C 972.190 414.725, 971.716 362.525, 971.476 332 C 970.949 265.188, 970.032 246.406, 967.061 241.599 C 965.927 239.765, 965 237.564, 965 236.709 C 965 235.853, 963.875 233.816, 962.500 232.182 C 961.125 230.548, 960 228.903, 960 228.527 C 960 227.041, 951.784 220.069, 946.558 217.120 L 941.030 214 924.265 214.162 C 915.044 214.251, 904.350 214.631, 900.500 215.006 M 725.526 386.251 C 725.540 417.188, 725.913 443.625, 726.355 445 C 728.072 450.341, 729.998 453.622, 733.184 456.638 C 738.671 461.830, 740.348 462.443, 758.799 465.983 C 761.714 466.542, 764.751 467, 765.549 467 C 766.801 467, 767 458.676, 767 406.320 L 767 345.640 763.834 341.070 C 757.222 331.525, 753.597 330.060, 736.500 330.025 L 725.500 330.002 725.526 386.251" stroke="none" fill="#d31817" fill-rule="evenodd"/><path d="M 1097.274 34.031 C 1091.100 34.511, 1085.068 35.428, 1083.870 36.069 C 1082.672 36.711, 1075.124 37.831, 1067.096 38.560 C 1059.068 39.289, 1050.039 40.586, 1047.032 41.442 C 1044.025 42.299, 1037.909 43, 1033.442 43 C 1028.756 43, 1022.186 43.800, 1017.910 44.891 C 1013.834 45.931, 1005.550 47.110, 999.500 47.512 C 993.450 47.914, 985.166 49.088, 981.090 50.121 C 977.015 51.155, 970.390 52, 966.368 52 C 962.347 52, 954.881 52.890, 949.778 53.978 C 944.675 55.066, 935.550 56.392, 929.500 56.924 C 923.450 57.456, 915.575 58.575, 912 59.411 C 908.425 60.246, 902.332 60.946, 898.460 60.965 C 894.588 60.984, 888.963 61.633, 885.960 62.407 C 879.529 64.065, 864.444 65.993, 857.872 65.997 C 855.327 65.999, 851.673 66.657, 849.752 67.459 C 847.831 68.262, 840.013 69.364, 832.380 69.909 C 824.746 70.454, 816.689 71.542, 814.476 72.326 C 812.263 73.110, 804.838 74.082, 797.976 74.486 C 791.114 74.889, 783.956 75.856, 782.070 76.634 C 780.183 77.412, 772.523 78.460, 765.048 78.962 C 757.572 79.465, 750.116 80.407, 748.478 81.056 C 746.840 81.705, 741.536 82.620, 736.691 83.091 C 727.246 84.007, 725.321 84.945, 718.133 92.133 C 708.123 102.144, 708 102.905, 708 155.044 C 708 190.876, 708.211 196.930, 709.498 197.998 C 711.409 199.584, 731.622 198.773, 744.500 196.594 C 749.450 195.756, 758.450 195.017, 764.500 194.951 C 770.550 194.885, 777.975 194.461, 781 194.008 C 796.782 191.647, 813.557 190.019, 822.188 190.010 C 827.516 190.004, 834.733 189.337, 838.224 188.528 C 841.716 187.718, 854.007 186.579, 865.537 185.997 C 877.066 185.415, 887.850 184.506, 889.500 183.977 C 893.286 182.763, 913.815 181.042, 925 181 C 929.675 180.983, 936.200 180.295, 939.500 179.472 C 942.800 178.648, 951.351 177.693, 958.502 177.348 C 971.403 176.726, 971.546 176.743, 977.002 179.572 C 983.220 182.796, 987.399 186.531, 988.433 189.789 C 988.819 191.005, 989.506 192, 989.960 192 C 991.022 192, 991.874 194.090, 993.831 201.500 C 995.229 206.793, 995.482 224.302, 995.972 350 C 996.277 428.375, 996.634 492.601, 996.764 492.724 C 998.691 494.553, 1004.471 495.840, 1013 496.338 C 1018.775 496.675, 1025.975 497.660, 1029 498.526 C 1032.025 499.392, 1039.225 500.330, 1045 500.611 C 1050.775 500.891, 1058.875 501.956, 1063 502.977 C 1067.125 503.997, 1075.625 505.137, 1081.889 505.510 C 1088.152 505.882, 1095.127 506.857, 1097.389 507.676 C 1099.693 508.510, 1106.841 509.410, 1113.653 509.724 C 1124.672 510.230, 1126.119 510.093, 1129.153 508.255 C 1130.994 507.140, 1133.562 505.906, 1134.860 505.512 C 1139.576 504.080, 1147.237 496.207, 1151.250 488.667 L 1154 483.500 1154 271 L 1154 58.500 1151.250 53.317 C 1147.582 46.404, 1143.629 42.102, 1136.744 37.531 C 1131.079 33.770, 1130.935 33.735, 1119.765 33.447 C 1113.569 33.288, 1103.448 33.550, 1097.274 34.031 M 66 628.627 C 65.175 628.885, 61.350 630.044, 57.500 631.203 C 48 634.062, 39.181 638.407, 33.720 642.920 C 28.503 647.231, 21 655.629, 21 657.156 C 21 657.726, 20.155 659.386, 19.121 660.846 C 18.088 662.306, 17.020 665.300, 16.747 667.500 C 16.474 669.700, 15.651 674.090, 14.918 677.256 C 13.747 682.311, 13.792 683.791, 15.292 689.420 C 16.232 692.944, 17 696.931, 17 698.279 C 17 699.627, 17.900 701.874, 19 703.273 C 20.100 704.671, 21 706.204, 21 706.678 C 21 709.453, 39.557 726, 42.669 726 C 43.253 726, 44.803 726.841, 46.115 727.870 C 47.427 728.898, 50.075 730.078, 52 730.492 C 53.925 730.906, 57.170 732.089, 59.210 733.122 C 61.251 734.155, 64.401 735.002, 66.210 735.004 C 68.020 735.006, 70.858 735.836, 72.519 736.848 C 74.179 737.861, 78.440 739.018, 81.987 739.419 C 85.534 739.820, 90.338 741.015, 92.663 742.074 C 94.988 743.133, 98.083 744, 99.540 744 C 102.478 744, 112.196 748.969, 115.845 752.336 C 120.816 756.924, 122.385 764.683, 120.013 772.954 C 118.967 776.603, 111.214 784.500, 107.597 785.600 C 106.444 785.951, 103.532 787.121, 101.127 788.200 C 97.408 789.869, 94.994 790.112, 84.979 789.831 C 75.485 789.564, 72.830 789.161, 71.273 787.750 C 70.211 786.788, 68.571 786, 67.628 786 C 65.443 786, 56.277 777.478, 55.416 774.645 C 55.057 773.465, 54.202 771.825, 53.516 771 C 52.830 770.175, 51.955 768.186, 51.572 766.579 C 51.189 764.972, 50.004 762.549, 48.938 761.194 C 47.872 759.839, 46.987 758.228, 46.971 757.615 C 46.883 754.285, 35.193 745.991, 30.596 745.997 C 27.445 746.002, 18.701 750.629, 15.500 753.985 C 12.549 757.080, 12.500 757.305, 12.500 767.856 C 12.500 779.727, 13.646 783.135, 21.120 793.486 C 26.080 800.356, 38.413 812, 40.729 812 C 41.260 812, 42.732 812.900, 44 814 C 45.268 815.100, 47.250 816.002, 48.403 816.004 C 49.556 816.006, 51.933 816.881, 53.685 817.949 C 57.149 820.062, 78.386 823.472, 88 823.459 C 96.283 823.449, 118.283 819.982, 120.066 818.407 C 120.927 817.646, 123.153 816.719, 125.014 816.347 C 126.874 815.975, 129.945 814.620, 131.838 813.335 C 133.730 812.051, 135.666 811, 136.140 811 C 138.154 811, 155 794.583, 155 792.619 C 155 791.899, 155.854 790.538, 156.897 789.593 C 157.940 788.649, 159.314 785.808, 159.951 783.280 C 160.588 780.752, 161.759 777.754, 162.554 776.619 C 164.878 773.302, 164.580 750.566, 162.153 745.985 C 161.138 744.068, 160.008 741.278, 159.643 739.785 C 158.117 733.543, 146.475 720.815, 139 717.218 C 137.625 716.556, 135.825 715.607, 135 715.108 C 130.709 712.515, 122.576 709, 120.868 709 C 119.797 709, 117.251 708.164, 115.210 707.142 C 113.170 706.120, 109.355 705.003, 106.733 704.659 C 104.111 704.315, 100.649 703.353, 99.040 702.521 C 97.431 701.689, 93.224 700.599, 89.690 700.098 C 86.156 699.598, 81.878 698.471, 80.182 697.594 C 78.487 696.717, 75.790 696, 74.189 696 C 72.589 696, 69.621 694.875, 67.595 693.500 C 65.569 692.125, 63.497 691, 62.990 691 C 62.483 691, 60.656 689.619, 58.929 687.930 C 55.877 684.947, 55.799 684.651, 56.163 677.446 C 56.518 670.418, 56.718 669.876, 60.019 667.031 C 61.933 665.381, 64.625 663.724, 66 663.349 C 67.375 662.974, 70.300 661.852, 72.500 660.856 C 78.195 658.276, 92.027 658.356, 97.500 661 C 99.700 662.063, 102.130 662.947, 102.899 662.966 C 104.429 663.003, 111 669.354, 111 670.795 C 111 671.287, 111.883 672.489, 112.962 673.466 C 114.042 674.443, 115.427 676.762, 116.040 678.621 C 116.653 680.479, 117.516 682, 117.956 682 C 118.397 682, 119.297 683.303, 119.957 684.895 C 120.616 686.488, 123.033 689.300, 125.328 691.145 C 129.170 694.235, 130.053 694.500, 136.500 694.500 C 142.427 694.500, 143.846 694.155, 145.750 692.250 C 146.988 691.013, 148.370 690, 148.822 690 C 149.275 690, 150.850 688.160, 152.322 685.910 C 154.674 682.318, 154.999 680.828, 154.996 673.660 C 154.992 666.935, 154.549 664.621, 152.473 660.500 C 149.049 653.702, 141.043 644.777, 134.721 640.709 C 131.850 638.860, 128.150 636.485, 126.500 635.430 C 124.850 634.374, 121.475 632.985, 119 632.343 C 116.525 631.700, 112.700 630.480, 110.500 629.631 C 107.372 628.424, 102.249 628.095, 87 628.123 C 76.275 628.142, 66.825 628.369, 66 628.627 M 353.911 630.672 C 352.035 632.141, 349.375 634.711, 348 636.382 L 345.500 639.420 345.500 725.052 L 345.500 810.684 349.202 815.202 C 351.949 818.553, 354.403 820.277, 358.702 821.874 L 364.500 824.027 370 821.925 C 376.629 819.391, 377.177 818.963, 381.277 813.105 L 384.500 808.500 384.500 724.977 L 384.500 641.453 382.250 639.038 C 381.012 637.710, 380 636.129, 380 635.525 C 380 634.922, 378.118 632.982, 375.818 631.214 C 372.006 628.284, 371.003 628, 364.479 628 C 358.240 628, 356.884 628.343, 353.911 630.672 M 742.500 628.921 C 739.177 629.562, 732.387 633.707, 729.887 636.620 C 729 637.654, 727.470 640.652, 726.488 643.283 C 724.772 647.881, 724.773 648.297, 726.514 654.045 C 727.981 658.891, 729.189 660.733, 732.887 663.762 C 737.326 667.399, 737.667 667.499, 745.475 667.469 C 752.809 667.440, 753.749 667.203, 756.396 664.719 C 757.989 663.223, 759.682 662, 760.159 662 C 761.472 662, 766.008 651.117, 765.942 648.126 C 765.910 646.682, 764.672 643.041, 763.192 640.035 C 759.274 632.082, 750.513 627.376, 742.500 628.921 M 1485.417 632.133 C 1480.922 633.144, 1475.807 637.527, 1472.250 643.414 L 1470 647.139 1470 727.447 C 1470 796.666, 1470.202 807.923, 1471.461 808.968 C 1472.265 809.635, 1473.216 811.152, 1473.574 812.340 C 1474.781 816.346, 1479.234 819.915, 1485.717 822.072 L 1492.114 824.201 1497.948 822.020 C 1504.254 819.661, 1507.509 816.756, 1510.853 810.500 C 1512.893 806.684, 1513.003 805.021, 1513.246 774.299 C 1513.403 754.429, 1513.883 741.754, 1514.500 741.200 C 1515.649 740.170, 1527.742 741.305, 1536.033 743.221 C 1539.737 744.077, 1543.144 745.794, 1546.337 748.414 C 1550.900 752.159, 1560 763.109, 1560 764.856 C 1560 765.315, 1560.900 766.505, 1562 767.500 C 1563.100 768.495, 1564 769.760, 1564 770.311 C 1564 770.861, 1565.125 772.786, 1566.500 774.589 C 1567.875 776.392, 1569 778.572, 1569 779.433 C 1569 780.295, 1569.457 781, 1570.016 781 C 1570.575 781, 1571.813 782.688, 1572.766 784.750 C 1573.720 786.813, 1574.844 788.950, 1575.264 789.500 C 1577.844 792.876, 1581.416 798.896, 1582.237 801.249 C 1582.764 802.762, 1583.592 804, 1584.078 804 C 1584.563 804, 1585.870 805.784, 1586.982 807.965 C 1590.206 814.285, 1596.558 819.690, 1603.459 821.986 L 1609.561 824.017 1615.782 821.916 C 1620.657 820.270, 1622.865 818.808, 1625.994 815.158 C 1629.544 811.017, 1629.988 809.921, 1629.994 805.274 C 1629.998 801.802, 1629.330 798.949, 1628.004 796.774 C 1626.906 794.973, 1626.006 792.543, 1626.004 791.372 C 1626.002 790.202, 1625.348 788.704, 1624.551 788.042 C 1623.754 787.381, 1622.566 785.214, 1621.910 783.226 C 1621.254 781.239, 1619.881 778.715, 1618.859 777.618 C 1617.836 776.521, 1617 774.908, 1617 774.034 C 1617 773.160, 1616.213 771.736, 1615.250 770.869 C 1614.287 770.003, 1612.600 767.787, 1611.500 765.946 C 1610.400 764.104, 1609.040 761.850, 1608.477 760.937 C 1604.232 754.051, 1592.783 742.006, 1585.087 736.331 C 1583.726 735.328, 1583.926 735.066, 1586.501 734.475 C 1588.151 734.096, 1591.330 732.935, 1593.566 731.893 C 1595.802 730.852, 1597.919 730, 1598.271 730 C 1598.894 730, 1604.211 726.623, 1608.742 723.351 C 1611.781 721.156, 1617 716.122, 1617 715.386 C 1617 715.057, 1618.125 713.452, 1619.500 711.818 C 1620.875 710.184, 1622.003 708.094, 1622.007 707.173 C 1622.010 706.253, 1622.907 704.150, 1624 702.500 C 1625.754 699.851, 1625.988 697.788, 1625.993 684.871 C 1626 671.143, 1625.836 669.883, 1623.337 664.425 C 1616.772 650.086, 1608.770 642.116, 1594 635.210 C 1591.055 633.833, 1585.726 632.742, 1578.576 632.053 C 1565.358 630.779, 1491.151 630.843, 1485.417 632.133 M 1673.145 632.075 C 1667.467 633.192, 1660.471 638.907, 1658.809 643.787 C 1657.053 648.941, 1656.352 796.655, 1658.042 805.500 C 1659.694 814.155, 1664.066 819.193, 1672.300 821.933 C 1678.586 824.025, 1678.613 824.026, 1684.233 822.092 C 1691.886 819.459, 1697.057 813.761, 1698.729 806.117 C 1699.533 802.440, 1699.931 791.756, 1699.883 775.179 C 1699.842 761.253, 1700.013 749.654, 1700.262 749.405 C 1700.512 749.155, 1712.390 748.795, 1726.659 748.604 C 1747.997 748.319, 1753.151 747.973, 1755.696 746.657 C 1757.398 745.777, 1760.750 744.762, 1763.145 744.401 C 1765.540 744.040, 1768.850 742.954, 1770.500 741.987 C 1772.150 741.019, 1774.557 739.907, 1775.849 739.515 C 1778.843 738.607, 1780.612 737.147, 1789.631 728.146 C 1793.684 724.101, 1797 719.999, 1797 719.031 C 1797 718.062, 1797.829 716.197, 1798.843 714.885 C 1799.856 713.573, 1801.169 709.800, 1801.760 706.500 C 1802.351 703.200, 1803.414 697.459, 1804.122 693.742 C 1805.148 688.356, 1805.160 686.123, 1804.183 682.742 C 1803.508 680.409, 1802.442 675.575, 1801.814 672 C 1801.186 668.425, 1799.846 664.427, 1798.836 663.115 C 1797.826 661.803, 1797 660.253, 1797 659.669 C 1797 656.400, 1787.461 645.628, 1780.834 641.413 C 1778.818 640.130, 1776.879 638.613, 1776.525 638.041 C 1776.171 637.468, 1774.949 637, 1773.809 637 C 1772.669 637, 1770.333 636.138, 1768.618 635.085 C 1766.322 633.675, 1762.125 632.884, 1752.696 632.085 C 1737.814 630.824, 1679.547 630.817, 1673.145 632.075 M 1513.962 663.843 C 1512.436 664.356, 1512.808 708.983, 1514.338 709.053 C 1523.433 709.466, 1559.384 708.676, 1562 708.005 C 1576.248 704.352, 1581.359 700.282, 1582.427 691.741 C 1584.172 677.774, 1579.905 670.244, 1567.989 666.264 C 1562.211 664.334, 1558.950 664.064, 1538.240 663.798 C 1525.448 663.634, 1514.522 663.654, 1513.962 663.843 M 1701.652 663.823 C 1700.169 664.114, 1700 666.695, 1700 689.073 L 1700 714 1702.250 714.060 C 1703.487 714.093, 1712.825 714.070, 1723 714.007 C 1741.209 713.896, 1741.597 713.849, 1747.633 711.004 C 1753.788 708.103, 1758 704.099, 1758 701.149 C 1758 700.279, 1758.745 697.615, 1759.656 695.230 C 1761.378 690.721, 1761.400 690.953, 1758.055 678.203 C 1756.842 673.584, 1751.274 668.152, 1747 667.421 C 1745.075 667.091, 1741.700 666.201, 1739.500 665.441 C 1735.858 664.185, 1706.269 662.920, 1701.652 663.823 M 233.500 680.055 C 231.300 681.096, 228.326 681.959, 226.891 681.974 C 222.803 682.015, 210.047 688.970, 202.592 695.222 C 198.099 698.990, 188 712.203, 188 714.312 C 188 715.092, 187.140 716.824, 186.089 718.160 C 185.037 719.497, 183.702 723.159, 183.122 726.299 C 182.541 729.438, 181.517 733.018, 180.844 734.254 C 180.170 735.493, 179.429 741.713, 179.192 748.134 C 178.833 757.832, 179.104 760.911, 180.815 766.634 C 181.944 770.410, 183.139 774.874, 183.470 776.553 C 184.146 779.979, 187.228 786.320, 191.420 792.908 C 195.056 798.623, 207.127 810.396, 210.991 811.996 C 212.646 812.682, 214 813.621, 214 814.083 C 214 814.545, 215.780 815.402, 217.955 815.988 C 220.130 816.574, 222.505 817.648, 223.232 818.375 C 223.960 819.102, 230.721 820.716, 238.258 821.960 C 251.363 824.124, 252.323 824.155, 260.231 822.662 C 264.779 821.804, 270.488 820.801, 272.917 820.435 C 275.346 820.068, 278.721 818.922, 280.417 817.888 C 282.113 816.854, 284.093 816.006, 284.817 816.004 C 285.541 816.002, 287.608 814.875, 289.411 813.500 C 291.214 812.125, 292.984 811, 293.344 811 C 294.009 811, 294.660 810.475, 301.120 804.723 C 305.247 801.048, 313 791.321, 313 789.818 C 313 789.267, 313.900 787.671, 315 786.273 C 316.100 784.874, 317.002 782.778, 317.004 781.615 C 317.006 780.452, 318.018 777.925, 319.254 776 C 321.408 772.643, 321.500 771.599, 321.500 750.476 C 321.500 729.150, 321.429 728.360, 319.250 725.591 C 318.012 724.017, 317 721.468, 317 719.924 C 317 718.381, 316.504 716.812, 315.898 716.437 C 315.292 716.062, 314.156 714.225, 313.375 712.355 C 311.739 708.441, 310.696 707.121, 302.500 698.602 C 299.200 695.171, 295.038 691.511, 293.250 690.467 C 291.462 689.423, 290 688.272, 290 687.909 C 290 687.547, 288.704 686.991, 287.121 686.674 C 285.537 686.357, 283.518 685.375, 282.634 684.491 C 281.750 683.607, 278.883 682.497, 276.263 682.025 C 273.643 681.553, 269.700 680.474, 267.500 679.627 C 261.319 677.248, 238.833 677.531, 233.500 680.055 M 423.084 681.341 C 420.653 683.108, 417.425 686.786, 415.901 689.525 L 413.133 694.500 413.066 737.746 C 413.005 777.775, 413.142 781.420, 414.914 786.746 C 415.966 789.911, 417.111 794.188, 417.459 796.250 C 417.806 798.313, 418.423 800, 418.830 800 C 419.236 800, 420.304 801.237, 421.203 802.750 C 424.200 807.791, 431.807 814.463, 438.324 817.767 C 444.025 820.656, 446.023 821.105, 455.636 821.655 C 466.467 822.275, 484 820.637, 484 819.005 C 484 818.572, 485.713 817.532, 487.807 816.694 C 489.900 815.856, 492.205 814.457, 492.929 813.585 C 493.653 812.713, 494.674 812, 495.199 812 C 495.724 812, 497.526 810.628, 499.203 808.951 C 503.073 805.081, 504.826 805.462, 506.869 810.620 C 509.179 816.454, 511.857 819.343, 516.770 821.299 C 522.053 823.403, 524.392 823.426, 530.239 821.434 C 533.536 820.311, 535.848 818.568, 538.418 815.270 L 542 810.672 542 751.140 L 542 691.608 539.337 687.764 C 535.057 681.589, 528.900 678, 522.585 678 C 518.970 678, 516.507 678.585, 514.885 679.830 C 513.573 680.836, 511.768 681.926, 510.874 682.251 C 509.980 682.576, 507.867 684.888, 506.180 687.389 L 503.111 691.936 502.805 729.718 C 502.508 766.522, 502.442 767.622, 500.250 772.195 C 499.012 774.777, 498 777.424, 498 778.077 C 498 779.494, 491.296 786, 489.837 786 C 489.275 786, 487.671 786.900, 486.273 788 C 484.143 789.675, 482.216 790, 474.398 790 C 465.069 790, 465.066 789.999, 461.571 786.504 C 457.147 782.081, 456 779.917, 456 776 C 456 774.278, 455.439 771.886, 454.753 770.684 C 453.841 769.087, 453.371 758.010, 453.003 729.464 L 452.500 690.427 449.499 686.788 C 444.262 680.436, 439.693 677.991, 433.206 678.066 C 428.427 678.122, 426.783 678.654, 423.084 681.341 M 618.038 680.036 C 615.035 681.116, 611.409 682, 609.983 682 C 608.556 682, 605.864 683.125, 604 684.500 C 602.136 685.875, 599.983 687, 599.214 687 C 597.150 687, 592.573 690.631, 584.718 698.500 C 575.825 707.409, 575 708.384, 575 709.989 C 575 710.716, 573.875 712.786, 572.500 714.589 C 571.125 716.392, 570 718.856, 570 720.065 C 570 721.275, 568.987 723.892, 567.750 725.882 C 565.589 729.356, 565.500 730.400, 565.500 752.145 C 565.500 772.014, 565.707 775.020, 567.192 776.660 C 568.123 777.688, 569.303 780.393, 569.814 782.670 C 570.326 784.947, 571.702 787.837, 572.872 789.093 C 574.043 790.349, 575 792.007, 575 792.776 C 575 795.442, 590.794 810.380, 596.767 813.364 C 599.920 814.940, 604.169 817.080, 606.210 818.121 C 608.489 819.284, 614.635 820.562, 622.154 821.438 C 632.670 822.663, 636.223 822.668, 647.445 821.472 C 656.425 820.514, 661.736 819.443, 664.461 818.040 C 666.640 816.918, 669.201 816, 670.152 816 C 671.104 816, 672.164 815.544, 672.509 814.986 C 672.854 814.428, 674.917 813.062, 677.095 811.952 C 681.338 809.787, 695 796.513, 695 794.556 C 695 793.908, 696.013 792.291, 697.250 790.963 C 699.240 788.828, 699.500 787.502, 699.500 779.490 L 699.500 770.432 695.500 766.446 C 693.300 764.254, 689.578 761.610, 687.229 760.569 L 682.959 758.678 677.897 761.048 C 673.243 763.228, 665 771.330, 665 773.725 C 665 775.704, 657.477 784.212, 653.084 787.201 C 648.635 790.229, 648.162 790.323, 637 790.410 C 625.574 790.499, 625.467 790.478, 620.341 787.140 C 615.249 783.825, 609 776.473, 609 773.798 C 609 773.042, 608.100 770.658, 607 768.500 C 604.122 762.854, 604.059 740.071, 606.905 733.739 C 607.953 731.408, 609.073 728.316, 609.394 726.870 C 610.332 722.647, 620.474 713.174, 624.828 712.455 C 626.848 712.122, 629.727 711.382, 631.228 710.812 C 632.728 710.242, 635.428 710.026, 637.228 710.332 C 647.095 712.011, 649.956 712.832, 652.677 714.770 C 655.574 716.833, 665 727.240, 665 728.376 C 665 729.532, 671.986 735.861, 673.950 736.484 C 675.078 736.842, 676 737.554, 676 738.067 C 676 739.998, 683.823 738.958, 688.353 736.426 C 695.027 732.696, 699 726.383, 699 719.509 C 699 716.544, 698.504 713.812, 697.898 713.437 C 697.292 713.062, 696.142 711.190, 695.342 709.276 C 693.595 705.094, 693.087 704.451, 685.795 697.185 C 680.255 691.665, 673.881 687, 671.878 687 C 671.337 687, 669.238 685.875, 667.215 684.500 C 665.191 683.125, 662.178 681.990, 660.518 681.978 C 658.858 681.966, 655.538 681.066, 653.141 679.978 C 646.891 677.142, 625.990 677.177, 618.038 680.036 M 736 680.635 C 730.146 684.756, 728.349 687.238, 726.639 693.566 C 725.219 698.820, 725.002 706.510, 725.014 751.066 C 725.026 797.057, 725.211 803.092, 726.764 808.098 C 729.133 815.736, 732.733 819.672, 739.473 821.991 C 744.916 823.863, 745.086 823.863, 750.625 821.957 C 757.373 819.635, 760.691 816.353, 763.723 809 C 765.983 803.518, 765.991 803.329, 765.986 750 C 765.982 696.593, 765.978 696.492, 763.741 692 C 760.537 685.567, 757.962 682, 756.520 682 C 755.832 682, 754.126 681.100, 752.727 680 C 748.983 677.055, 740.636 677.372, 736 680.635 M 841.500 680 C 839.300 681.018, 836.242 681.885, 834.704 681.926 C 833.167 681.967, 829.795 683.125, 827.212 684.500 C 824.629 685.875, 821.950 687, 821.258 687 C 820.566 687, 820 687.374, 820 687.831 C 820 688.288, 818.763 689.275, 817.250 690.025 C 814.549 691.364, 800 705.398, 800 706.664 C 800 707.020, 798.875 708.786, 797.500 710.589 C 796.125 712.392, 795 714.736, 795 715.798 C 795 716.861, 794.157 718.803, 793.127 720.115 C 792.096 721.427, 790.920 724.931, 790.512 727.903 C 790.104 730.874, 789.147 734.797, 788.385 736.621 C 786.507 741.115, 786.509 760.564, 788.388 765.128 C 789.152 766.983, 790.097 770.525, 790.490 773 C 791.119 776.966, 793.540 782.678, 798.710 792.398 C 800.678 796.099, 816.676 812, 818.430 812 C 819.159 812, 820.296 812.652, 820.958 813.449 C 821.619 814.246, 823.811 815.428, 825.830 816.075 C 827.848 816.723, 830.175 817.819, 831 818.510 C 831.825 819.201, 838.541 820.727, 845.925 821.901 L 859.351 824.035 872.408 821.857 C 879.589 820.658, 886.056 819.087, 886.778 818.365 C 887.499 817.643, 889.817 816.588, 891.929 816.019 C 894.040 815.451, 896.325 814.314, 897.006 813.493 C 897.687 812.672, 898.921 812, 899.747 812 C 901.614 812, 920 793.514, 920 791.637 C 920 790.885, 920.900 789.126, 922 787.727 C 923.100 786.329, 924 784.563, 924 783.804 C 924 783.044, 924.924 780.640, 926.052 778.461 C 930.538 769.802, 931.252 734.930, 927.132 725.707 C 926.098 723.393, 924.722 719.848, 924.075 717.830 C 923.427 715.811, 922.246 713.619, 921.449 712.958 C 920.652 712.296, 920 711.233, 920 710.595 C 920 707.720, 907.456 694.581, 900.516 690.187 C 893.101 685.492, 885.816 682, 883.435 682 C 882.137 682, 878.791 681.100, 876 680 C 868.922 677.210, 847.526 677.210, 841.500 680 M 961 680.639 C 954.505 685.218, 953.068 687.469, 952.022 694.704 C 950.654 704.165, 950.703 799.027, 952.080 806.474 C 953.564 814.504, 957.451 819.167, 964.933 821.895 C 970.655 823.982, 970.736 823.983, 976.197 822.104 C 982.310 820.001, 985.300 817.374, 988.975 810.876 L 991.451 806.500 991.975 767.353 C 992.421 734.068, 992.731 727.929, 994.043 726.353 C 994.892 725.334, 996.174 723.321, 996.893 721.879 C 998.757 718.140, 1006.802 712.412, 1011.500 711.479 C 1021.182 709.556, 1029.614 711.202, 1034.222 715.915 C 1036.974 718.731, 1037.346 719.956, 1038.572 730.247 C 1039.403 737.215, 1039.934 753.113, 1039.969 772 C 1040.029 805.555, 1040.653 810.418, 1045.663 816.430 C 1047.536 818.677, 1050.461 820.522, 1054.267 821.857 C 1059.925 823.842, 1060.135 823.846, 1065.366 822.046 C 1071.969 819.774, 1075.915 815.994, 1078.459 809.500 C 1080.260 804.906, 1080.445 801.416, 1080.744 766.500 C 1081.049 730.858, 1080.935 727.817, 1078.907 717.500 C 1076.886 707.217, 1074.342 700.958, 1070.016 695.634 C 1067.773 692.873, 1062.592 688.010, 1061.888 688.005 C 1061.551 688.002, 1059.576 686.650, 1057.500 685 C 1055.424 683.350, 1052.644 682, 1051.323 682 C 1050.001 682, 1047.156 681.100, 1045 680 C 1039.407 677.147, 1023.127 677.134, 1016.859 679.978 C 1014.462 681.066, 1011.332 681.966, 1009.906 681.978 C 1008.479 681.990, 1006.004 683.124, 1004.406 684.499 C 1002.807 685.873, 1001.043 686.998, 1000.484 686.999 C 999.925 686.999, 997.019 689.239, 994.027 691.975 C 988.180 697.322, 987.043 697.200, 987.015 691.219 C 987.006 689.274, 986.405 687.709, 985.538 687.376 C 984.734 687.068, 983.812 685.983, 983.489 684.966 C 983.166 683.949, 980.842 681.965, 978.325 680.558 C 972.284 677.181, 965.862 677.211, 961 680.639 M 1155.500 680 C 1152.750 681.015, 1149.375 681.887, 1148 681.937 C 1146.625 681.988, 1144.375 682.664, 1143 683.439 C 1141.625 684.215, 1138.700 685.794, 1136.500 686.947 C 1134.300 688.101, 1131.546 689.610, 1130.380 690.300 C 1127.785 691.836, 1115 704.524, 1115 705.563 C 1115 705.975, 1113.875 707.786, 1112.500 709.589 C 1111.125 711.392, 1110 713.369, 1110 713.983 C 1110 714.597, 1109.223 716.539, 1108.274 718.300 C 1103.918 726.377, 1100.106 749.236, 1101.689 757.787 C 1104.337 772.089, 1106.395 780.619, 1107.530 782 C 1108.208 782.825, 1109.081 784.540, 1109.469 785.812 C 1110.722 789.920, 1114.356 794.983, 1121 801.875 C 1127.503 808.622, 1137.475 815.997, 1140.104 816.004 C 1140.872 816.006, 1142.919 816.873, 1144.653 817.930 C 1148.211 820.100, 1167.475 823.483, 1176 823.435 C 1183.502 823.393, 1202.155 820.085, 1204 818.469 C 1204.825 817.747, 1206.850 816.838, 1208.500 816.450 C 1214.272 815.093, 1225.753 806.248, 1232.259 798.147 C 1233.226 796.942, 1234.948 793.269, 1236.085 789.984 L 1238.152 784.011 1235.664 778.577 C 1233.515 773.884, 1232.653 772.997, 1229.338 772.077 C 1219.813 769.432, 1215.447 771.148, 1204.059 782.014 C 1196.772 788.967, 1185.989 794.128, 1177.500 794.728 C 1170.605 795.214, 1162 793.739, 1162 792.070 C 1162 791.601, 1160.906 790.942, 1159.569 790.607 C 1153.148 788.995, 1145.613 777.802, 1144.519 768.250 L 1143.804 762 1182.652 761.959 L 1221.500 761.918 1227.186 759.197 C 1230.980 757.382, 1233.892 755.068, 1235.936 752.247 C 1238.924 748.123, 1239 747.736, 1239 736.731 C 1239 728.506, 1238.608 724.885, 1237.554 723.381 C 1236.759 722.246, 1235.581 719.221, 1234.936 716.658 C 1234.290 714.096, 1233.396 712, 1232.949 712 C 1232.501 712, 1231.862 711.139, 1231.528 710.088 C 1230.196 705.891, 1216.813 691, 1214.374 691 C 1213.753 691, 1212.653 690.287, 1211.929 689.415 C 1211.205 688.543, 1208.900 687.144, 1206.807 686.306 C 1204.713 685.468, 1203 684.402, 1203 683.937 C 1203 683.471, 1201.313 682.817, 1199.250 682.483 C 1197.188 682.148, 1193.097 681.003, 1190.161 679.937 C 1182.777 677.258, 1162.834 677.294, 1155.500 680 M 1296 680 C 1293.525 681.039, 1290.367 681.913, 1288.982 681.944 C 1287.597 681.975, 1284.809 683.125, 1282.785 684.500 C 1280.762 685.875, 1278.486 687, 1277.727 687 C 1276.037 687, 1262.984 699.062, 1262.993 700.615 C 1262.997 701.228, 1262.062 702.922, 1260.916 704.380 C 1256.162 710.424, 1256.307 730.228, 1261.156 737.188 C 1266.157 744.364, 1276.078 753, 1279.322 753 C 1280.097 753, 1281.803 753.841, 1283.115 754.870 C 1284.427 755.898, 1287.075 757.078, 1289 757.492 C 1290.925 757.906, 1294.170 759.089, 1296.210 760.122 C 1298.251 761.155, 1301.418 762, 1303.249 762 C 1305.079 762, 1308.239 762.847, 1310.269 763.882 C 1312.300 764.918, 1316.354 766.064, 1319.277 766.429 C 1322.201 766.794, 1325.922 767.969, 1327.547 769.040 C 1329.171 770.111, 1331.472 770.990, 1332.661 770.993 C 1336.015 771.004, 1340 776.443, 1340 781.012 C 1340 785.431, 1338.510 790, 1337.069 790 C 1336.530 790, 1334.431 791.125, 1332.405 792.500 C 1329.096 794.746, 1327.725 795, 1318.926 795 C 1310.014 795, 1304.398 794.007, 1303.020 792.187 C 1302.734 791.809, 1300.925 790.684, 1299 789.688 C 1295.807 788.034, 1289 780.249, 1289 778.250 C 1289 777.791, 1287.082 775.297, 1284.738 772.708 L 1280.477 768 1273.185 768 C 1266.750 768, 1265.480 768.323, 1262.375 770.750 C 1260.439 772.263, 1257.989 775.170, 1256.928 777.210 C 1254.928 781.059, 1254.347 787.894, 1255.879 789.550 C 1256.363 790.072, 1257.315 792.240, 1257.995 794.366 C 1259.367 798.656, 1260.451 800.131, 1267 806.629 C 1271.364 810.959, 1273.782 812.656, 1279 815.049 C 1280.375 815.679, 1283.300 817.045, 1285.500 818.084 C 1290.571 820.479, 1314.209 824.368, 1319.500 823.678 C 1336.936 821.406, 1346.726 819.630, 1348 818.508 C 1348.825 817.781, 1351.412 816.677, 1353.750 816.054 C 1356.088 815.432, 1358 814.521, 1358 814.029 C 1358 813.537, 1358.817 812.875, 1359.816 812.558 C 1362.655 811.657, 1373.098 800.671, 1374.671 796.931 C 1375.450 795.080, 1376.630 793.229, 1377.293 792.819 C 1378.144 792.293, 1378.500 787.864, 1378.500 777.786 C 1378.500 764.304, 1378.373 763.373, 1376.250 761.250 C 1375.013 760.013, 1374 758.551, 1374 758.001 C 1374 756.845, 1367.667 750.325, 1364 747.705 C 1360.617 745.289, 1357.189 743.358, 1353 741.509 C 1351.075 740.660, 1348.150 739.296, 1346.500 738.479 C 1344.850 737.662, 1340.809 736.503, 1337.520 735.903 C 1334.231 735.304, 1330.406 734.244, 1329.020 733.547 C 1327.634 732.850, 1324.167 732.017, 1321.316 731.695 C 1318.464 731.373, 1314.101 730.185, 1311.620 729.055 C 1309.140 727.925, 1306.016 727, 1304.678 727 C 1301.242 727, 1294 719.981, 1294 716.652 C 1294 715.094, 1294.793 713.646, 1296 713 C 1297.100 712.411, 1298 711.319, 1298 710.572 C 1298 705.772, 1324.868 705.179, 1329 709.888 C 1329.825 710.828, 1331.298 711.903, 1332.273 712.276 C 1333.248 712.649, 1334.313 713.653, 1334.641 714.506 C 1335.895 717.774, 1344.728 725.620, 1349.756 727.931 L 1355.013 730.348 1361.256 727.817 C 1366.419 725.724, 1368.063 724.440, 1370.750 720.404 C 1374.715 714.449, 1374.803 711.732, 1371.250 704.883 C 1368.225 699.050, 1361.393 691, 1359.469 691 C 1358.796 691, 1357.713 690.359, 1357.063 689.576 C 1355.344 687.505, 1343.526 682, 1340.799 682 C 1339.519 682, 1336.009 681.100, 1333 680 C 1325.292 677.183, 1302.714 677.183, 1296 680 M 1162 709.472 C 1160.625 710.265, 1158.508 711.365, 1157.295 711.915 C 1151.998 714.320, 1145.237 725.150, 1144.780 731.962 L 1144.500 736.128 1172 736.155 L 1199.500 736.182 1199.822 733.529 C 1200.001 732.057, 1198.999 728.686, 1197.572 725.956 C 1196.158 723.251, 1195 720.556, 1195 719.969 C 1195 718.249, 1188.451 712, 1186.649 712 C 1185.742 712, 1185 711.622, 1185 711.161 C 1185 708.037, 1166.803 706.701, 1162 709.472 M 243.500 710.406 C 242.400 711.248, 240.530 711.951, 239.345 711.968 C 236.401 712.012, 229.051 718.340, 226.103 723.370 C 223.912 727.110, 223.133 730.209, 220.293 746.500 C 219.814 749.250, 219.774 753.300, 220.205 755.500 C 220.636 757.700, 221.472 762.425, 222.063 766 C 222.655 769.575, 223.944 773.634, 224.929 775.019 C 225.913 776.405, 227.043 778.561, 227.440 779.809 C 227.836 781.058, 230.381 783.836, 233.095 785.981 C 238.861 790.538, 243.450 791.529, 255.094 790.731 C 261.724 790.277, 263.691 789.695, 267.960 786.929 C 270.732 785.133, 273 783.142, 273 782.506 C 273 781.869, 274.125 780.292, 275.500 779 C 276.875 777.708, 278 775.879, 278 774.935 C 278 773.991, 278.890 771.257, 279.978 768.859 C 281.643 765.190, 281.960 762.281, 281.978 750.485 C 281.997 738.354, 281.731 735.969, 280 732.739 C 278.900 730.686, 278 728.106, 278 727.004 C 278 725.902, 277.100 724.100, 276 723 C 274.900 721.900, 274 720.624, 274 720.165 C 274 718.458, 267.534 713.652, 262.601 711.693 C 255.834 709.006, 246.180 708.356, 243.500 710.406 M 850.933 710.352 C 849.522 711.088, 847.190 711.986, 845.753 712.347 C 842.139 713.254, 836.764 718.562, 833.436 724.511 C 829.318 731.872, 827.581 746.080, 829.098 760 C 829.818 766.612, 830.937 771.724, 832.121 773.807 C 833.154 775.626, 834 777.728, 834 778.477 C 834 779.227, 836.537 782.101, 839.638 784.865 C 844.493 789.192, 846.042 789.986, 850.783 790.579 C 860.358 791.775, 870.682 790.494, 874.845 787.594 C 879.049 784.664, 883.472 779.385, 885.134 775.312 C 885.765 773.765, 887.005 770.925, 887.891 769 C 889.146 766.270, 889.496 762.198, 889.483 750.500 C 889.468 737.068, 889.232 735.009, 887.233 730.805 C 886.005 728.223, 885 725.468, 885 724.685 C 885 723.901, 882.862 721.132, 880.250 718.532 C 872.241 710.561, 858.096 706.614, 850.933 710.352" stroke="none" fill="#014e8a" fill-rule="evenodd"/></svg>