<svg xmlns="http://www.w3.org/2000/svg" width="168" height="161" viewBox="0 0 168 161" version="1.1"><path d="M 62 59.553 C 51.825 60.255, 43.163 60.868, 42.750 60.915 C 42.337 60.962, 42 64.825, 42 69.500 L 42 78 47.389 78 C 51.202 78, 53.469 78.559, 55.139 79.909 C 57.410 81.745, 57.519 82.460, 58 98.598 L 58.500 115.377 76.910 119.696 C 87.035 122.071, 95.504 123.829, 95.730 123.604 C 95.955 123.378, 95.814 109.560, 95.415 92.896 C 94.702 63.080, 94.654 62.563, 92.391 60.300 C 89.726 57.635, 89.763 57.636, 62 59.553 M 42 96.929 C 42 110.976, 42.702 113, 47.571 113 L 50 113 50 99.700 C 50 85.300, 49.569 84, 44.800 84 L 42 84 42 96.929" stroke="none" fill="#d21b13" fill-rule="evenodd"/><path d="M 34.898 62.623 C 34.158 63.515, 33.377 67.340, 33.163 71.123 L 32.774 78 37.387 78 L 42 78 42 69.500 L 42 61 39.122 61 C 37.540 61, 35.639 61.730, 34.898 62.623 M 33 100.878 C 33 115.124, 33.249 117.962, 34.599 119.082 C 36.566 120.715, 49.702 124.964, 50.455 124.212 C 50.755 123.912, 51 121.512, 51 118.879 C 51 114.192, 50.925 114.077, 47.476 113.429 C 41.801 112.365, 41 110.244, 41 96.277 L 41 84 37 84 L 33 84 33 100.878 M 58 121.718 L 58 127.669 73.371 132.476 C 83.271 135.571, 89.616 137.062, 91.199 136.665 C 94.043 135.951, 96.002 132.293, 95.996 127.703 L 95.992 124.500 79.246 120.591 C 70.036 118.441, 61.487 116.476, 60.250 116.224 C 58.117 115.791, 58 116.078, 58 121.718" stroke="none" fill="#00932b" fill-rule="evenodd"/><path d="M 125.750 17.706 C 126.987 17.944, 129.012 17.944, 130.250 17.706 C 131.488 17.467, 130.475 17.272, 128 17.272 C 125.525 17.272, 124.513 17.467, 125.750 17.706 M 117.269 18.693 C 118.242 18.947, 119.592 18.930, 120.269 18.656 C 120.946 18.382, 120.150 18.175, 118.500 18.195 C 116.850 18.215, 116.296 18.439, 117.269 18.693 M 133 18.378 C 133 18.585, 133.787 19.373, 134.750 20.128 C 136.336 21.371, 136.371 21.336, 135.128 19.750 C 133.821 18.084, 133 17.555, 133 18.378 M 110.269 19.693 C 111.242 19.947, 112.592 19.930, 113.269 19.656 C 113.946 19.382, 113.150 19.175, 111.500 19.195 C 109.850 19.215, 109.296 19.439, 110.269 19.693 M 102.269 20.693 C 103.242 20.947, 104.592 20.930, 105.269 20.656 C 105.946 20.382, 105.150 20.175, 103.500 20.195 C 101.850 20.215, 101.296 20.439, 102.269 20.693 M 95.269 21.693 C 96.242 21.947, 97.592 21.930, 98.269 21.656 C 98.946 21.382, 98.150 21.175, 96.500 21.195 C 94.850 21.215, 94.296 21.439, 95.269 21.693 M 87.750 22.662 C 88.438 22.940, 89.563 22.940, 90.250 22.662 C 90.938 22.385, 90.375 22.158, 89 22.158 C 87.625 22.158, 87.063 22.385, 87.750 22.662 M 136.462 69.500 C 136.463 95.900, 136.592 106.556, 136.749 93.181 C 136.907 79.805, 136.907 58.205, 136.749 45.181 C 136.591 32.156, 136.462 43.100, 136.462 69.500 M 80.269 23.693 C 81.242 23.947, 82.592 23.930, 83.269 23.656 C 83.946 23.382, 83.150 23.175, 81.500 23.195 C 79.850 23.215, 79.296 23.439, 80.269 23.693 M 72.750 24.662 C 73.438 24.940, 74.563 24.940, 75.250 24.662 C 75.938 24.385, 75.375 24.158, 74 24.158 C 72.625 24.158, 72.063 24.385, 72.750 24.662 M 65.269 25.693 C 66.242 25.947, 67.592 25.930, 68.269 25.656 C 68.946 25.382, 68.150 25.175, 66.500 25.195 C 64.850 25.215, 64.296 25.439, 65.269 25.693 M 57.750 26.662 C 58.438 26.940, 59.563 26.940, 60.250 26.662 C 60.938 26.385, 60.375 26.158, 59 26.158 C 57.625 26.158, 57.063 26.385, 57.750 26.662 M 50.269 27.693 C 51.242 27.947, 52.592 27.930, 53.269 27.656 C 53.946 27.382, 53.150 27.175, 51.500 27.195 C 49.850 27.215, 49.296 27.439, 50.269 27.693 M 43.813 28.683 C 44.534 28.972, 45.397 28.936, 45.729 28.604 C 46.061 28.272, 45.471 28.036, 44.417 28.079 C 43.252 28.127, 43.015 28.364, 43.813 28.683 M 38.459 32.067 C 38.096 32.653, 38.014 33.348, 38.276 33.610 C 38.538 33.872, 39.019 33.392, 39.345 32.543 C 40.021 30.781, 39.445 30.471, 38.459 32.067 M 86.269 49.693 C 87.242 49.947, 88.592 49.930, 89.269 49.656 C 89.946 49.382, 89.150 49.175, 87.500 49.195 C 85.850 49.215, 85.296 49.439, 86.269 49.693 M 74.750 50.662 C 75.438 50.940, 76.563 50.940, 77.250 50.662 C 77.938 50.385, 77.375 50.158, 76 50.158 C 74.625 50.158, 74.063 50.385, 74.750 50.662 M 63.269 51.693 C 64.242 51.947, 65.592 51.930, 66.269 51.656 C 66.946 51.382, 66.150 51.175, 64.500 51.195 C 62.850 51.215, 62.296 51.439, 63.269 51.693 M 52.269 52.693 C 53.242 52.947, 54.592 52.930, 55.269 52.656 C 55.946 52.382, 55.150 52.175, 53.500 52.195 C 51.850 52.215, 51.296 52.439, 52.269 52.693 M 41.269 53.693 C 42.242 53.947, 43.592 53.930, 44.269 53.656 C 44.946 53.382, 44.150 53.175, 42.500 53.195 C 40.850 53.215, 40.296 53.439, 41.269 53.693 M 101 55 C 101 55.733, 101.300 56.033, 101.667 55.667 C 102.033 55.300, 102.033 54.700, 101.667 54.333 C 101.300 53.967, 101 54.267, 101 55 M 72.500 58.060 C 66.729 58.556, 68.055 58.634, 77.258 58.337 C 89.777 57.933, 90.063 57.972, 92.508 60.417 C 93.879 61.788, 95 62.512, 95 62.027 C 95 61.542, 93.814 60.212, 92.365 59.073 C 89.545 56.854, 87.654 56.758, 72.500 58.060 M 41.833 59.737 C 38.189 59.967, 35.690 60.671, 34.833 61.708 C 33.648 63.142, 33.722 63.192, 35.500 62.155 C 36.600 61.514, 43.350 60.606, 50.500 60.139 C 59.743 59.534, 61.188 59.301, 55.500 59.333 C 51.100 59.358, 44.950 59.539, 41.833 59.737 M 33 65 C 33 65.733, 33.300 66.033, 33.667 65.667 C 34.033 65.300, 34.033 64.700, 33.667 64.333 C 33.300 63.967, 33 64.267, 33 65 M 95.411 81 C 95.411 90.625, 95.561 94.563, 95.745 89.750 C 95.928 84.937, 95.928 77.062, 95.745 72.250 C 95.561 67.438, 95.411 71.375, 95.411 81 M 32.418 72.745 L 32.500 78.500 42.752 78.555 L 53.004 78.610 43.051 78.271 L 33.098 77.931 32.717 72.461 L 32.336 66.990 32.418 72.745 M 55.420 80.973 C 56.739 83.036, 57 87.130, 57 105.747 L 57 128.050 59.651 129.058 C 61.110 129.612, 62.797 129.893, 63.401 129.683 C 64.006 129.472, 63.038 128.972, 61.250 128.571 L 58 127.841 58 105.531 C 58 84.358, 57.894 83.101, 55.920 80.861 L 53.840 78.500 55.420 80.973 M 26.200 84.200 C 24.706 85.694, 24.503 124.203, 25.975 126.953 C 27.152 129.153, 45.031 136.276, 48.234 135.822 C 50.247 135.536, 50.534 134.857, 50.800 129.733 C 50.966 126.561, 50.741 124.083, 50.300 124.225 C 48.858 124.691, 36.542 120.689, 34.750 119.172 C 33.211 117.869, 33 115.657, 33 100.845 L 33 84 40.378 84 C 45.260 84, 48.125 84.445, 48.848 85.317 C 49.487 86.086, 50.070 92.427, 50.251 100.567 L 50.561 114.500 50.781 100.321 C 51.057 82.437, 51.485 83, 37.629 83 C 31.006 83, 26.977 83.423, 26.200 84.200 M 96.370 121 C 96.370 126.775, 96.535 129.137, 96.737 126.250 C 96.939 123.362, 96.939 118.638, 96.737 115.750 C 96.535 112.862, 96.370 115.225, 96.370 121 M 102.853 119.253 C 103.357 119.757, 104.834 120.002, 106.135 119.797 C 108.136 119.482, 107.996 119.342, 105.219 118.881 C 103.231 118.552, 102.298 118.698, 102.853 119.253 M 111.750 120.662 C 112.438 120.940, 113.563 120.940, 114.250 120.662 C 114.938 120.385, 114.375 120.158, 113 120.158 C 111.625 120.158, 111.063 120.385, 111.750 120.662 M 119.269 121.693 C 120.242 121.947, 121.592 121.930, 122.269 121.656 C 122.946 121.382, 122.150 121.175, 120.500 121.195 C 118.850 121.215, 118.296 121.439, 119.269 121.693 M 126.250 122.689 C 127.213 122.941, 128.787 122.941, 129.750 122.689 C 130.713 122.438, 129.925 122.232, 128 122.232 C 126.075 122.232, 125.287 122.438, 126.250 122.689 M 65.333 130.667 C 65.700 131.033, 66.300 131.033, 66.667 130.667 C 67.033 130.300, 66.733 130, 66 130 C 65.267 130, 64.967 130.300, 65.333 130.667 M 68.333 131.667 C 68.700 132.033, 69.300 132.033, 69.667 131.667 C 70.033 131.300, 69.733 131, 69 131 C 68.267 131, 67.967 131.300, 68.333 131.667 M 71.333 132.667 C 71.700 133.033, 72.300 133.033, 72.667 132.667 C 73.033 132.300, 72.733 132, 72 132 C 71.267 132, 70.967 132.300, 71.333 132.667 M 94.564 133.707 C 94.022 135.132, 94.136 135.247, 95.124 134.267 C 95.808 133.588, 96.115 132.781, 95.807 132.474 C 95.499 132.166, 94.940 132.721, 94.564 133.707 M 75.500 134 C 76.600 134.473, 78.175 134.859, 79 134.859 C 79.945 134.859, 79.761 134.542, 78.500 134 C 77.400 133.527, 75.825 133.141, 75 133.141 C 74.055 133.141, 74.239 133.458, 75.500 134 M 81.333 135.667 C 81.700 136.033, 82.300 136.033, 82.667 135.667 C 83.033 135.300, 82.733 135, 82 135 C 81.267 135, 80.967 135.300, 81.333 135.667 M 84.333 136.667 C 84.700 137.033, 85.300 137.033, 85.667 136.667 C 86.033 136.300, 85.733 136, 85 136 C 84.267 136, 83.967 136.300, 84.333 136.667 M 89.500 137 L 86.500 137.763 89.191 137.882 C 90.671 137.947, 92.160 137.550, 92.500 137 C 92.840 136.450, 92.979 136.053, 92.809 136.118 C 92.639 136.183, 91.150 136.580, 89.500 137" stroke="none" fill="#feaf00" fill-rule="evenodd"/><path d="M 83.941 23.446 C 62.733 26.329, 44.248 28.972, 42.862 29.320 C 39.216 30.235, 38 33.919, 38 44.047 L 38 53 41.750 52.985 C 43.813 52.977, 55.175 52.084, 67 51 C 94.662 48.465, 97.465 48.465, 100 51 C 101.918 52.918, 102 54.333, 102 85.531 C 102 110.647, 102.285 118.167, 103.250 118.519 C 105.134 119.206, 125.939 122, 129.174 122 C 130.728 122, 132.900 121.100, 134 120 C 135.944 118.056, 136 116.667, 136 70 C 136 23.333, 135.944 21.944, 134 20 C 131.200 17.200, 128.537 17.383, 83.941 23.446 M 41.389 96.500 C 41.390 103.650, 41.550 106.444, 41.742 102.708 C 41.935 98.973, 41.934 93.123, 41.739 89.708 C 41.545 86.294, 41.387 89.350, 41.389 96.500 M 48.333 113.667 C 48.700 114.033, 49.300 114.033, 49.667 113.667 C 50.033 113.300, 49.733 113, 49 113 C 48.267 113, 47.967 113.300, 48.333 113.667 M 66.333 117.667 C 66.700 118.033, 67.300 118.033, 67.667 117.667 C 68.033 117.300, 67.733 117, 67 117 C 66.267 117, 65.967 117.300, 66.333 117.667 M 70.333 118.667 C 70.700 119.033, 71.300 119.033, 71.667 118.667 C 72.033 118.300, 71.733 118, 71 118 C 70.267 118, 69.967 118.300, 70.333 118.667 M 74.333 119.667 C 74.700 120.033, 75.300 120.033, 75.667 119.667 C 76.033 119.300, 75.733 119, 75 119 C 74.267 119, 73.967 119.300, 74.333 119.667 M 83.333 121.667 C 83.700 122.033, 84.300 122.033, 84.667 121.667 C 85.033 121.300, 84.733 121, 84 121 C 83.267 121, 82.967 121.300, 83.333 121.667 M 87.333 122.667 C 87.700 123.033, 88.300 123.033, 88.667 122.667 C 89.033 122.300, 88.733 122, 88 122 C 87.267 122, 86.967 122.300, 87.333 122.667 M 91.333 123.667 C 91.700 124.033, 92.300 124.033, 92.667 123.667 C 93.033 123.300, 92.733 123, 92 123 C 91.267 123, 90.967 123.300, 91.333 123.667" stroke="none" fill="#085f7e" fill-rule="evenodd"/></svg>